<svg xmlns="http://www.w3.org/2000/svg" viewBox="0 0 421.197 421.197"><path d="M138.212 261.462c14.716-9.475 13.07-37.675 13.07-44.255h118.446c0 6.58-1.825 34.78 12.89 44.255l-72.113 80.771-72.293-80.771z" fill="#ffd7a3"/><path d="M256.568 289.59l26.051-28.129c-14.716-9.474-12.89-37.675-12.89-44.255H151.283c8.498 24.433 64.706 66.352 105.285 72.384z" fill="#fdc88e"/><path d="M302.63 131.663c0 52.696-30.343 118.446-92.124 118.446s-92.124-65.75-92.124-118.446 41.246-72.384 92.124-72.384 92.124 19.688 92.124 72.384z" fill="#ffe1b2"/><path d="M361.853 421.197c10.903 0 19.741-8.838 19.741-19.741v-63.463c0-28.954-22.562-59.864-50.138-68.687l-41.168-13.173c-22.149 16.936-53.802 40.039-79.782 40.039s-57.633-23.103-79.782-40.039l-41.168 13.173c-27.576 8.823-50.138 39.733-50.138 68.687v63.463c0 10.903 8.838 19.741 19.741 19.741h302.694z" fill="#a2cde2"/><path d="M171.024 19.797h-13.161c-25.439 0-46.062 20.856-46.062 46.296 0 23.62 6.58 65.57 6.58 65.57s7.403-33.313 39.482-46.062c19.604-7.792 13.161-65.804 13.161-65.804z" fill="#545465"/><path d="M164.444 20.031c26.458-40.675 94.592-6.814 138.187-6.814 6.58 9.459 11.104 81.02 0 118.446L282.89 98.761s-60.32 22.168-125.026-12.927" fill="#545465"/><path d="M121.547 144.823c-9.864-2.468-16.326 2.805-16.326 13.161 0 13.709 13.265 47.296 27.21 26.321s-10.884-39.482-10.884-39.482zM297.97 144.823c10.767-2.468 17.821 2.805 17.821 13.161 0 13.709-14.479 47.296-29.701 26.321-15.222-20.975 11.88-39.482 11.88-39.482z" fill="#ffe1b2"/><path d="M223.666 316.282c0 3.619-2.961 6.58-6.58 6.58h-13.161c-3.619 0-6.58-2.961-6.58-6.58v-13.161c0-3.619 2.961-6.58 6.58-6.58h13.161c3.619 0 6.58 2.961 6.58 6.58v13.161z" fill="#29394a"/><path fill="#29394a" d="M219.546 319.161l-9.04 3.701-9.041-3.701-4.12 101.637h26.321z"/><path d="M210.506 296.171l-27.456 27.456c-2.859 2.859-7.596 2.487-9.975-.783l-48.113-66.156 15.326-15.326a6.58 6.58 0 0 1 9.055-.238l61.163 55.047z" fill="#b5e0f0"/><path d="M210.506 296.171l27.456 27.456c2.859 2.859 7.596 2.487 9.975-.783l48.113-66.156-15.326-15.326a6.58 6.58 0 0 0-9.055-.238l-61.163 55.047z" fill="#b5e0f0"/><path d="M331.641 269.305l-35.877-11.48h-.002l-85.163 105.012-85.164-105.012h-.002l-35.877 11.48c-27.576 8.823-50.138 39.733-50.138 68.687v63.464c0 10.108 7.627 18.347 17.423 19.507H364.357c9.797-1.16 17.423-9.399 17.423-19.507v-63.464c-.001-28.954-22.563-59.864-50.139-68.687z" fill="#4a698e"/><path fill="#416185" d="M258.71 420.963h6.58V295.398l-6.58 8.115zM217.589 420.963h6.58v-74.859l-6.58 8.114zM238.149 420.963h6.581V320.751l-6.581 8.114zM299.831 420.963h6.58V261.232l-6.58-2.106zM197.028 420.963h6.581v-66.745l-6.581-8.114zM340.952 273.236v147.727h6.58V277.162a67.235 67.235 0 0 0-6.58-3.926zM320.392 265.705v155.258h6.58V267.811zM279.271 278.16v142.803h6.58V270.045zM94.225 420.963h6.581V265.705l-6.581 2.106zM176.468 420.963h6.58v-92.098l-6.58-8.114zM53.104 297.635v122.499c1.202.386 2.447.676 3.736.829h2.844V289.371a83.019 83.019 0 0 0-6.58 8.264zM361.513 420.963h2.844a19.857 19.857 0 0 0 3.737-.829V297.635a83.019 83.019 0 0 0-6.58-8.264v131.592zM73.665 277.162v143.801h6.58V273.236a67.235 67.235 0 0 0-6.58 3.926zM155.907 420.963h6.58v-117.45l-6.58-8.114zM135.346 420.963h6.58V278.16l-6.58-8.114zM114.786 261.232v159.731h6.58V259.126z"/><g><path d="M97.824 297.262l23.127 2.891v17.017a6.58 6.58 0 0 0 2.759 5.357l86.795 61.902.093-21.592-85.637-106.148-32.901 12.036v22.008a6.58 6.58 0 0 0 5.764 6.529z" fill="#395a7f"/></g><g><path d="M323.19 297.262l-23.127 2.891v17.017a6.58 6.58 0 0 1-2.759 5.357l-86.795 61.902-.093-21.592 85.637-106.148 32.902 12.036v22.008a6.582 6.582 0 0 1-5.765 6.529z" fill="#395a7f"/></g><g><path fill="#395a7f" d="M210.415 370.563l-8.957-.583 6.032 50.983h5.851l6.032-50.983z"/></g></svg>